<svg width="800" height="800" viewBox="0 0 800 800" fill="none" xmlns="http://www.w3.org/2000/svg">
<rect width="800" height="800" fill="white"/>
<mask id="mask0_6_101" style="mask-type:luminance" maskUnits="userSpaceOnUse" x="464" y="377" width="136" height="46">
<path d="M512.785 391.104C480.101 394.894 466.838 417.63 464.471 421.899C464.471 422.373 464.471 422.373 464.945 422.373C474.485 417.803 484.743 414.916 495.266 413.84C496.212 413.84 496.212 413.366 496.686 412.893C501.352 405.303 506.919 398.305 513.265 392.051C513.265 391.577 513.265 391.104 512.791 391.104M502.366 412.419C501.892 412.893 502.366 412.893 502.84 412.893H506.63C532.209 412.893 546.418 420.942 569.63 422.366C606.577 424.735 599.945 402.472 596.155 393.946L588.576 378.314C588.35 378.025 588.063 377.79 587.735 377.626C587.407 377.462 587.047 377.374 586.681 377.367C537.418 377.367 512.787 399.156 502.366 412.419Z" fill="white"/>
</mask>
<g mask="url(#mask0_6_101)">
<path d="M606.575 376.893H464.471V425.208H606.575V376.893Z" fill="url(#paint0_radial_6_101)"/>
</g>
<mask id="mask1_6_101" style="mask-type:luminance" maskUnits="userSpaceOnUse" x="472" y="312" width="112" height="93">
<path d="M499.524 346.105L472.998 403.42C472.524 404.367 473.472 404.367 473.472 403.895C483.893 390.632 502.367 384.473 517.999 383.526C518.473 383.526 518.473 383.052 518.473 382.58L501.419 346.105C501.419 345.631 500.944 345.631 500.472 345.631C500.108 345.666 499.769 345.835 499.524 346.105ZM556.365 312.474L524.156 381.638C523.682 382.113 524.156 382.585 524.63 382.113C545.473 368.376 564.418 366.015 582.419 366.015C582.894 366.015 583.366 365.541 582.894 365.069L558.26 312.474C558.26 312 557.785 312 557.313 312C556.84 312 556.365 312 556.365 312.474Z" fill="white"/>
</mask>
<g mask="url(#mask1_6_101)">
<path d="M582.892 312H472.523V404.367H582.892V312Z" fill="url(#paint1_radial_6_101)"/>
</g>
<path d="M408.577 366.948H400.999V359.842H408.579L408.577 366.948ZM401.471 407.685H408.577V371.215H401.471V407.685ZM393.423 370.738C391.19 370.7 388.976 371.146 386.931 372.044C384.887 372.942 383.06 374.27 381.577 375.94L381.103 370.729H374.946V407.21H382.05V384C382.05 382.106 382.996 381.631 383.945 380.676C386.853 378.597 390.318 377.439 393.892 377.352V370.72L393.423 370.738ZM432.266 370.738C427.745 370.792 423.264 371.593 419.003 373.107L419.95 378.792C423.554 377.28 427.415 376.476 431.323 376.423C433.472 376.268 435.617 376.763 437.48 377.843C438.202 378.588 438.747 379.486 439.075 380.47C439.403 381.454 439.506 382.499 439.375 383.528V394.424C439.375 398.686 436.534 402.95 429.902 402.95C425.64 402.95 423.745 400.581 423.745 397.265C423.745 391.58 429.43 389.216 435.587 389.216V384.947C422.324 385.421 416.64 390.158 416.64 398.21C416.64 405.315 421.85 408.631 428.482 408.631C430.605 408.698 432.719 408.309 434.68 407.493C436.642 406.676 438.406 405.449 439.855 403.895L440.329 407.685H446.486V383.052C446.486 373.579 441.275 370.736 432.275 370.736M329.961 370.736C327.726 370.697 325.51 371.142 323.463 372.041C321.417 372.939 319.589 374.269 318.105 375.94L317.631 370.729H311.473V407.21H318.579V384C318.579 382.106 319.526 381.631 320.474 380.676C323.346 378.528 326.834 377.362 330.421 377.352V370.72L329.961 370.736ZM350.803 370.736C346.282 370.791 341.801 371.591 337.541 373.105L338.487 378.79C342.091 377.278 345.952 376.474 349.86 376.421C352.009 376.267 354.154 376.762 356.017 377.842C356.739 378.586 357.284 379.484 357.612 380.468C357.94 381.452 358.043 382.497 357.912 383.526V394.422C357.912 398.684 355.071 402.948 348.439 402.948C344.177 402.948 342.282 400.579 342.282 397.263C342.282 391.578 347.967 389.215 354.124 389.215V384.947C340.861 385.421 335.177 390.158 335.177 398.21C335.177 405.315 340.387 408.631 347.019 408.631C349.142 408.698 351.256 408.309 353.217 407.493C355.179 406.676 356.943 405.449 358.392 403.895L358.866 407.685H365.023V383.052C365.023 373.579 359.813 370.736 350.812 370.736M245.655 370.736C241.133 370.791 236.652 371.591 232.392 373.105L233.324 378.79C236.929 377.278 240.79 376.474 244.698 376.421C246.846 376.267 248.991 376.762 250.855 377.842C251.577 378.586 252.122 379.484 252.45 380.468C252.778 381.452 252.88 382.497 252.75 383.526V394.422C252.75 398.684 249.908 402.948 243.277 402.948C239.014 402.948 237.12 400.579 237.12 397.263C237.12 391.578 242.804 389.215 248.962 389.215V384.947C235.685 385.421 230 390.158 230 398.21C230 405.315 235.211 408.631 241.842 408.631C243.966 408.698 246.079 408.309 248.041 407.493C250.002 406.676 251.766 405.449 253.215 403.895L253.689 407.685H259.847V383.052C259.847 373.579 255.11 370.736 245.635 370.736M298.214 378.316C299.739 377.774 301.334 377.455 302.951 377.369V371.215C299.9 371.472 297.043 372.817 294.902 375.005C292.06 372.164 287.796 371.215 283.06 371.215C274.534 370.741 267.902 374.54 267.902 383.057C267.781 385.152 268.249 387.239 269.254 389.081C270.259 390.923 271.76 392.447 273.587 393.479C271.218 396.32 268.376 401.058 268.376 402.952C268.38 403.428 268.485 403.897 268.683 404.33C268.882 404.763 269.169 405.149 269.527 405.462C269.885 405.776 270.305 406.011 270.76 406.151C271.214 406.291 271.694 406.334 272.166 406.276C274.061 406.276 280.693 406.75 283.539 406.75C286.386 406.75 293.012 407.224 293.012 411.487C293.012 415.277 289.222 416.697 283.539 416.697C271.697 416.697 274.539 410.066 274.539 409.118H269.788C268.898 410.364 268.403 411.849 268.368 413.38C268.368 419.065 273.578 421.906 283.051 421.906C292.052 421.906 299.63 418.116 299.63 410.064C299.682 408.7 299.408 407.344 298.83 406.108C298.252 404.872 297.386 403.792 296.305 402.959C293.936 401.538 290.62 400.589 284.932 400.589H276.421C277.007 398.616 277.801 396.71 278.791 394.905C280.337 395.296 281.933 395.456 283.527 395.379C291.576 395.379 298.685 392.054 298.685 383.063C298.793 381.78 298.631 380.489 298.211 379.273C297.736 378.326 297.736 378.326 298.211 378.326M283.053 390.168C277.368 390.168 275.473 387.799 275.473 383.063C275.473 378.8 277.842 375.957 283.053 375.957C288.738 375.957 291.102 378.326 291.102 383.063C291.102 387.799 288.732 390.168 283.053 390.168Z" fill="#00514C"/>
<path d="M320.473 437.526C316.683 437.526 314.788 434.684 314.788 431.369C314.762 430.553 314.904 429.741 315.204 428.982C315.504 428.223 315.957 427.534 316.534 426.957C317.111 426.38 317.8 425.927 318.559 425.627C319.318 425.327 320.13 425.185 320.945 425.211C324.735 425.211 326.63 428.053 326.63 431.369C326.696 432.194 326.582 433.023 326.295 433.8C326.009 434.577 325.558 435.283 324.972 435.868C324.387 436.453 323.682 436.905 322.905 437.191C322.128 437.477 321.298 437.591 320.473 437.526ZM320.473 427.579C318.104 427.579 317.631 429.474 317.631 431.369C317.631 433.263 318.106 435.158 320.473 435.158C322.84 435.158 323.315 433.263 323.315 431.369C323.315 429.474 322.837 427.579 320.473 427.579ZM321.42 419.999C321.894 419.525 321.894 419.525 322.366 419.999L323.313 420.946V421.42L319.523 423.315H318.576L318.102 422.84C317.628 422.366 317.628 422.366 318.102 421.894L321.42 419.999Z" fill="#938231"/>
<path d="M331.84 437.052C331.84 437.526 331.84 437.526 331.365 437.526H329.472C328.998 437.526 328.998 437.526 328.998 437.052V420.954C328.998 420.48 328.998 420.48 329.472 420.48L331.367 420.006C331.841 420.006 331.841 420.006 331.841 420.48L331.84 437.052Z" fill="#938231"/>
<path d="M343.684 434.683H344.158L344.632 436.104C344.632 436.578 344.632 436.578 344.158 436.578C342.796 437.117 341.358 437.437 339.896 437.524C339.07 437.59 338.24 437.476 337.463 437.19C336.686 436.904 335.981 436.453 335.395 435.867C334.81 435.282 334.358 434.576 334.072 433.799C333.785 433.022 333.671 432.192 333.737 431.367C333.671 430.542 333.785 429.712 334.072 428.935C334.358 428.158 334.809 427.453 335.395 426.868C335.98 426.282 336.685 425.831 337.462 425.545C338.239 425.258 339.069 425.144 339.894 425.21C340.523 425.141 341.16 425.236 341.742 425.485C342.324 425.734 342.833 426.128 343.218 426.631C344.175 427.842 344.678 429.35 344.639 430.893V431.367C344.639 431.841 344.639 431.841 343.693 431.841H336.578C336.566 432.281 336.644 432.719 336.807 433.128C336.97 433.536 337.214 433.908 337.525 434.219C337.836 434.53 338.208 434.774 338.616 434.937C339.025 435.1 339.463 435.178 339.903 435.166C341.186 435.31 342.485 435.148 343.693 434.692M342.272 430.429C342.325 429.74 342.107 429.058 341.664 428.527C341.222 427.997 340.59 427.66 339.903 427.588C338.482 427.588 337.534 429.008 337.061 430.429H342.272Z" fill="#938231"/>
<path d="M352.686 437.526C348.896 437.526 347.001 434.684 347.001 431.368C346.975 430.553 347.116 429.74 347.416 428.981C347.716 428.222 348.169 427.533 348.746 426.955C349.323 426.378 350.012 425.926 350.771 425.625C351.53 425.325 352.343 425.183 353.158 425.209C356.948 425.209 358.843 428.051 358.843 431.367C358.369 435.156 356.474 437.526 352.686 437.526ZM352.686 427.577C350.317 427.577 349.844 429.472 349.844 431.367C349.844 433.261 350.319 435.156 352.686 435.156C355.053 435.156 355.527 433.261 355.527 431.367C355.527 429.472 354.581 427.577 352.686 427.577Z" fill="#938231"/>
<path d="M375.42 434.682H375.894L376.369 436.103C376.369 436.577 376.369 436.577 375.894 436.577C374.533 437.117 373.094 437.436 371.632 437.524C370.807 437.59 369.977 437.476 369.2 437.19C368.423 436.904 367.717 436.452 367.131 435.867C366.546 435.281 366.094 434.576 365.808 433.799C365.522 433.022 365.407 432.192 365.473 431.367C365.407 430.541 365.522 429.712 365.808 428.935C366.094 428.158 366.545 427.453 367.131 426.867C367.716 426.282 368.422 425.83 369.199 425.544C369.975 425.258 370.805 425.144 371.63 425.209C373.03 425.172 374.39 425.681 375.42 426.63C376.377 427.842 376.879 429.349 376.841 430.892V431.367C376.841 431.841 376.841 431.841 375.894 431.841H368.798C368.785 432.281 368.863 432.718 369.026 433.127C369.189 433.536 369.433 433.907 369.744 434.218C370.056 434.53 370.427 434.774 370.836 434.937C371.244 435.1 371.682 435.177 372.122 435.165C373.252 435.278 374.393 435.116 375.446 434.691M374.026 430.429C374.079 429.74 373.861 429.058 373.418 428.527C372.976 427.996 372.344 427.659 371.657 427.587C370.236 427.587 369.287 429.008 368.815 430.429H374.026Z" fill="#938231"/>
<path d="M392.474 420.471C392.948 420.471 392.948 420.946 392.948 421.418V422.365C392.949 422.427 392.938 422.49 392.915 422.548C392.891 422.606 392.856 422.659 392.812 422.703C392.768 422.747 392.715 422.782 392.657 422.806C392.599 422.829 392.536 422.84 392.474 422.839C391.999 422.839 391.527 422.365 391.053 422.365C389.632 422.365 389.158 423.311 389.158 424.734V425.68H391.996C392.47 425.68 392.47 425.68 392.47 426.155V427.101C392.47 427.575 392.47 427.575 391.996 427.575H389.158V436.576C389.158 437.05 389.158 437.05 388.684 437.05H386.316C385.842 437.05 385.842 437.05 385.842 436.576V427.574H384.421C383.947 427.574 383.947 427.574 383.947 427.099V426.156C383.947 425.682 383.947 425.682 384.421 425.682H385.842V423.315C386.038 422.343 386.576 421.473 387.358 420.863C388.139 420.253 389.114 419.944 390.104 419.99C390.5 419.813 390.94 419.764 391.365 419.849C391.789 419.934 392.177 420.149 392.474 420.464" fill="#938231"/>
<path d="M405.261 437.052C405.261 437.526 405.261 437.526 404.787 437.526H403.84C402.419 437.526 401.945 437.052 401.945 436.105C401.073 437.082 399.906 437.747 398.621 438C395.296 438 393.41 435.158 393.41 431.843C393.41 427.581 395.779 425.211 398.621 425.211C399.245 425.193 399.865 425.31 400.44 425.555C401.014 425.801 401.527 426.168 401.945 426.632V426.158C401.945 425.684 401.945 425.684 402.419 425.684H404.314C404.789 425.684 404.789 425.684 404.789 426.158V434.684C404.789 435.158 404.789 435.158 405.263 435.158C405.737 435.158 405.737 435.158 405.737 435.633V437.053L405.261 437.052ZM401.471 429.003C400.874 428.265 400.035 427.761 399.102 427.582C397.681 427.582 396.26 429.003 396.26 431.372C396.26 433.267 397.207 435.162 398.63 435.162C400.052 435.162 400.999 434.215 400.999 433.741V429L401.471 429.003Z" fill="#938231"/>
<path d="M414.261 425.684V428.053C414.261 428.527 414.261 428.527 413.787 428.527H413.313C412.434 428.544 411.592 428.881 410.943 429.474V437.053C410.943 437.528 410.943 437.528 410.469 437.528H408.578C408.104 437.528 408.104 437.528 408.104 437.053V426.632C408.102 426.569 408.113 426.507 408.137 426.449C408.16 426.391 408.195 426.338 408.239 426.294C408.284 426.249 408.336 426.214 408.395 426.191C408.453 426.168 408.515 426.156 408.578 426.158H409.999C410.473 426.158 410.473 426.158 410.473 426.632V427.587C410.793 427.136 411.22 426.77 411.716 426.522C412.212 426.274 412.76 426.152 413.314 426.167C413.788 425.22 413.788 425.22 414.261 425.693" fill="#938231"/>
<path d="M424.682 434.682H425.156L425.63 436.103C425.63 436.577 425.63 436.577 425.156 436.577C423.794 437.117 422.356 437.436 420.894 437.524C420.068 437.59 419.239 437.476 418.461 437.19C417.684 436.904 416.979 436.452 416.393 435.867C415.808 435.281 415.356 434.576 415.07 433.799C414.783 433.022 414.669 432.192 414.735 431.367C414.669 430.541 414.783 429.712 415.07 428.935C415.356 428.158 415.807 427.453 416.393 426.867C416.978 426.282 417.683 425.83 418.46 425.544C419.237 425.258 420.067 425.144 420.892 425.209C422.292 425.172 423.652 425.681 424.682 426.63C425.638 427.842 426.141 429.349 426.103 430.892V431.367C426.103 431.841 426.103 431.841 425.156 431.841H418.059C418.047 432.281 418.125 432.718 418.288 433.127C418.451 433.536 418.695 433.907 419.006 434.218C419.317 434.53 419.689 434.774 420.097 434.937C420.506 435.1 420.944 435.177 421.384 435.165C422.514 435.278 423.655 435.116 424.708 434.691M423.287 430.429C423.34 429.74 423.122 429.058 422.68 428.527C422.238 427.996 421.605 427.659 420.918 427.587C419.498 427.587 418.549 429.008 418.077 430.429H423.287Z" fill="#938231"/>
<path d="M431.314 437.052C431.314 437.526 431.314 437.526 430.84 437.526H428.947C428.473 437.526 428.473 437.526 428.473 437.052V420.954C428.473 420.48 428.473 420.48 428.947 420.48L430.842 420.006C431.316 420.006 431.316 420.006 431.316 420.48L431.314 437.052Z" fill="#938231"/>
<path d="M439.368 437.526C435.578 437.526 433.683 434.684 433.683 431.368C433.657 430.553 433.798 429.74 434.098 428.981C434.398 428.222 434.851 427.533 435.428 426.955C436.005 426.378 436.694 425.926 437.453 425.625C438.212 425.325 439.024 425.183 439.84 425.209C443.63 425.209 445.525 428.051 445.525 431.367C445.59 432.192 445.476 433.022 445.19 433.798C444.904 434.575 444.452 435.281 443.867 435.866C443.282 436.451 442.576 436.903 441.799 437.189C441.023 437.475 440.193 437.591 439.368 437.526ZM439.842 427.577C437.473 427.577 437 429.472 437 431.367C437 433.261 437.474 435.156 439.842 435.156C442.209 435.156 442.683 433.261 442.683 431.367C442.683 429.472 441.737 427.577 439.842 427.577Z" fill="#938231"/>
<defs>
<radialGradient id="paint0_radial_6_101" cx="0" cy="0" r="1" gradientUnits="userSpaceOnUse" gradientTransform="translate(521.535 390.636) scale(50.3417 50.3417)">
<stop stop-color="#DBC643"/>
<stop offset="1" stop-color="#938231"/>
</radialGradient>
<radialGradient id="paint1_radial_6_101" cx="0" cy="0" r="1" gradientUnits="userSpaceOnUse" gradientTransform="translate(528.003 358.131) scale(50.7832)">
<stop stop-color="#009169"/>
<stop offset="1" stop-color="#006355"/>
</radialGradient>
</defs>
</svg>
