<svg width="800" height="800" viewBox="0 0 800 800" fill="none" xmlns="http://www.w3.org/2000/svg">
<rect width="800" height="800" fill="white"/>
<path fill-rule="evenodd" clip-rule="evenodd" d="M197 288H603V515.409H197V288Z" fill="white"/>
<path fill-rule="evenodd" clip-rule="evenodd" d="M328.015 462.204C332.325 454.678 333.966 445.181 332.287 436.371C331.513 432.196 329.974 428.199 327.749 424.582C327.754 420.251 327.467 414.188 330.135 408.774C332.132 405.011 334.056 403.857 336.577 402.546C339.923 400.883 344.743 400.112 349.495 400.121H369.564V386.744H331.931V364.165H367.054C370.276 364.165 373.505 364.41 376.161 364.881C380.69 365.749 383.876 366.918 387.2 370.005C392.105 374.924 393.727 380.724 393.813 386.744V477.893H346.985C344.725 477.893 342.458 477.658 340.559 477.237C335.593 476.494 331.386 472.127 329.613 467.785C328.839 466.002 328.302 464.126 328.015 462.204ZM349.493 421.027V457.821H369.562V421.027H349.493ZM448.174 326.534H473.258V478.729H430.605C427.363 478.729 424.1 478.382 421.399 477.742C418.702 477.109 416.563 476.201 414.696 474.957C407.835 469.953 405.656 463.479 405.521 456.988V385.908C405.613 381.287 406.237 376.557 409.27 372.371C414.098 366.323 420.955 363.32 427.255 363.331H448.171L448.174 326.534ZM429.769 385.908V456.988H448.174V385.908H429.769ZM509.217 363.331V477.893H484.128V363.331H509.217ZM558.553 364.165C561.771 364.165 565.004 364.41 567.658 364.881C572.187 365.749 575.378 366.918 578.695 370.005C583.607 374.924 585.224 380.724 585.31 386.744V477.893H538.486C536.017 477.893 533.541 477.607 531.497 477.1C528.011 476.185 525.463 474.873 522.779 470.856C520.508 467.42 519.215 462.925 519.251 458.657V421.027C519.251 418.575 519.476 416.119 519.893 414.026C520.654 410.549 521.583 407.861 524.255 405.153C525.378 404.081 526.67 403.201 528.079 402.548C531.423 400.885 536.238 400.115 540.99 400.124H561.061V386.744H523.43V364.165H558.553ZM540.99 421.027V457.821H561.061V421.027H540.99Z" fill="#CC2229"/>
<path fill-rule="evenodd" clip-rule="evenodd" d="M496.47 325.914C499.537 325.95 502.952 326.77 506.093 329.835C510.719 335.148 512.33 341.637 506.093 349.151C500.789 353.78 494.334 355.393 486.84 349.151C482.223 343.843 480.603 337.354 486.849 329.835C489.492 327.174 493.07 325.903 496.47 325.914ZM302.292 310.743C309.678 310.593 319.839 310.685 328.584 311.483V336.57C320.209 335.867 311.775 335.882 306.304 335.786C300.831 335.684 298.297 335.774 295.976 335.817C293.655 335.862 291.548 335.862 288.286 336.02C284.082 336.201 279.893 336.622 275.738 337.279C270.864 338.07 265.533 339.341 261.391 340.698C257.248 342.052 254.294 343.491 251.707 345.166C238.31 354.548 235.935 365.262 242.413 375.579C245.126 380.442 249.413 383.429 253.557 385.212C258.138 387.206 262.052 388.652 266.112 390.428C268.554 391.439 271.02 392.393 273.507 393.289C279.789 395.644 290.483 398.922 300.108 403.28C304.739 405.404 309.186 407.91 313.402 410.77C330.538 422.635 332.433 432.313 332.928 443.612C332.744 451.895 330.81 460.358 322.859 469.195C320.699 471.513 318.269 473.563 315.621 475.304C312.914 477.084 309.99 478.51 306.92 479.546C303.684 480.646 300.043 481.439 295.665 481.84C287.206 482.57 273.755 482.002 261.428 479.499C255.391 478.201 250.116 476.327 245.09 474.332C240.058 472.334 235.272 470.232 231.597 468.084C227.92 465.928 225.457 463.648 223.213 461.172L234.921 439.433C239.013 442.411 243.393 444.982 247.875 447.208C252.352 449.43 256.957 451.271 262.072 452.911C267.187 454.556 272.813 456.009 277.536 456.863C282.261 457.713 286.084 457.958 289.23 457.889C292.375 457.823 294.842 457.436 296.999 456.803C298.95 456.247 300.805 455.398 302.501 454.286C309.583 448.93 308.878 443.443 305.899 436.943C304.961 435.221 303.727 433.676 302.255 432.38C297.312 427.671 286.828 424.868 278.64 421.418C276.008 420.301 273.426 419.032 269.571 417.378C265.718 415.729 260.587 413.685 257.178 412.327C253.767 410.966 252.077 410.285 248.873 408.807C245.673 407.329 240.957 405.044 237.021 402.651C233.516 400.532 230.241 398.054 227.249 395.256C214.437 383.141 214.397 373.932 215.095 362.337C216.172 353.338 219.349 343.365 227.614 333.985C232.78 328.147 239.342 323.49 245.865 320.189C253.233 316.273 262.469 314.335 272.058 313.141C277.139 312.503 282.078 312.116 285.625 311.816C289.169 311.519 291.321 311.307 293.691 311.138C296.554 310.925 299.422 310.793 302.292 310.743Z" fill="black"/>
</svg>
